<svg viewBox="0 0 512 512" xmlns="http://www.w3.org/2000/svg"><g id="Fancy_Mask"><path d="M143.9784,217.5964h-41.62A3.5,3.5,0,0,0,98.94,221.85a75.8041,75.8041,0,0,0,73.5762,59.0986H211.581a3.4994,3.4994,0,0,0,3.4433-4.1279A72.1776,72.1776,0,0,0,143.9784,217.5964Z"></path><path d="M281.2157,276.821a3.5,3.5,0,0,0,3.4434,4.1279h39.0644A75.8044,75.8044,0,0,0,397.3,221.85a3.5,3.5,0,0,0-3.418-4.2539h-41.62A72.1769,72.1769,0,0,0,281.2157,276.821Z"></path><path d="M46.6815,434.8571a8,8,0,0,0,14.3477,4.8691L78.52,416.9225l17.4908,22.8037a8,8,0,0,0,14.3476-4.8691V316.1394a126.0519,126.0519,0,0,0,62.1587,16.31H323.7235A126.983,126.983,0,0,0,450.5624,205.61V174.0964a8.0067,8.0067,0,0,0-.11-1.27,92.18,92.18,0,0,0,14.8828-20.0415,7.9994,7.9994,0,0,0-3.8008-11.1767,92.4315,92.4315,0,0,0-26.0814-7.1062,92.1714,92.1714,0,0,0,8.3831-34.5257,7.999,7.999,0,0,0-8.3476-8.3476,92.17,92.17,0,0,0-34.5253,8.3829A92.4269,92.4269,0,0,0,393.8564,73.93,7.9993,7.9993,0,0,0,382.68,70.13a92.3922,92.3922,0,0,0-46.54,97.03,123.62,123.62,0,0,0-88.02,55.8418,123.6862,123.6862,0,0,0-104.1416-56.9052H53.6776a8,8,0,0,0-8,8V205.61ZM434.2962,166.0964H383.442q2.5621-3.4554,4.8016-7.1477a76.4262,76.4262,0,0,1,58.0542-5.9236A75.9812,75.9812,0,0,1,434.2962,166.0964Zm-16.6256-32.0008a92.5006,92.5006,0,0,0-20.031,3.7292,92.5023,92.5023,0,0,0,3.7294-20.0309,76.0618,76.0618,0,0,1,25.4942-9.1927A76.06,76.06,0,0,1,417.6706,134.0956ZM354.8,126.5505a76.2485,76.2485,0,0,1,27.64-37.3838,76.4775,76.4775,0,0,1-20.2254,76.93h-9.9524c-.02,0-.04.001-.06.001A76.259,76.259,0,0,1,354.8,126.5505Zm79.7627,79.06A110.9647,110.9647,0,0,1,323.7235,316.45H172.517a110.2427,110.2427,0,0,1-65.4632-21.4563L90.6189,280.2188a111.0077,111.0077,0,0,1-22.1117-36.2936l-5.9444-24.279a111.43,111.43,0,0,1-.8852-14.0362V182.0964h82.3008A107.722,107.722,0,0,1,240.9242,242.81a8,8,0,0,0,14.3916,0,107.7238,107.7238,0,0,1,96.9458-60.7138h82.3008Z"></path></g></svg>